<svg width="90" height="96" viewBox="0 0 90 96" fill="none" xmlns="http://www.w3.org/2000/svg">
<path d="M83.5454 50.2546C78.0011 45.322 65.8344 41.5426 56.5842 40.0052C65.8344 38.4651 78.0011 34.6856 83.5454 29.7584C88.8804 25.0181 91.3943 21.8899 89.2169 17.1549C87.7175 13.9012 81.6567 13.597 78.1812 10.5061C74.7058 7.41529 74.3588 2.02635 70.6952 0.697127C65.3708 -1.24065 61.8583 1.00141 56.5312 5.73908C50.9842 10.6689 46.7353 21.4842 45.0002 29.7077C43.2704 21.4815 39.0188 10.6663 33.4745 5.73641C28.1369 0.996068 24.6243 -1.24065 19.2972 0.697127C15.6337 2.03168 15.292 7.41796 11.8192 10.5061C8.3464 13.5943 2.27761 13.9066 0.783587 17.1629C-1.39652 21.8979 1.1253 25.0181 6.45239 29.7558C11.9993 34.6856 24.1687 38.4651 33.4216 40.0052C24.1687 41.5452 11.9993 45.3247 6.45239 50.2546C1.12001 54.9922 -1.39652 58.1151 0.786236 62.8554C2.28291 66.1091 8.3464 66.416 11.8219 69.5015C15.2947 72.5924 15.647 77.984 19.3105 79.3132C24.6323 81.2537 28.1475 79.0063 33.4772 74.2713C37.8506 70.3824 41.4162 62.8261 43.5804 55.7663C42.8863 67.8707 44.979 84.0349 53.7842 93.8332C57.3444 97.7915 60.1603 95.3039 61.2596 94.3323C62.3616 93.3581 65.5112 90.5582 61.7523 86.8001C51.3948 76.4359 47.8028 65.6687 46.8439 57.0661C49.0346 63.7336 52.4253 70.6172 56.5312 74.2713C61.8609 79.0089 65.3761 81.251 70.7058 79.3132C74.3667 77.9787 74.7111 72.587 78.1812 69.5015C81.6567 66.4107 87.7228 66.1038 89.2169 62.8448C91.3943 58.1098 88.8725 54.9869 83.5454 50.2546Z" fill="white"/>
</svg>
